HIERARCHY
ROOT joint_Root
{
	OFFSET 0.0 0.0 0.0
	CHANNELS 6 Xposition Yposition Zposition Zrotation Xrotation Yrotation 
	JOINT Hips
	{
		OFFSET -17.1583 93.1646 452.98
		CHANNELS 6 Xposition Yposition Zposition Zrotation Xrotation Yrotation 
		JOINT Spine
		{
			OFFSET 15.7357 0.0 0.0
			CHANNELS 6 Xposition Yposition Zposition Zrotation Xrotation Yrotation 
			JOINT Chest
			{
				OFFSET 8.98455 -0.406207 0.0
				CHANNELS 6 Xposition Yposition Zposition Zrotation Xrotation Yrotation 
				JOINT Neck
				{
					OFFSET 16.3773 0.0 0.0
					CHANNELS 6 Xposition Yposition Zposition Zrotation Xrotation Yrotation 
					JOINT Head
					{
						OFFSET 6.45672 0.0 0.0
						CHANNELS 6 Xposition Yposition Zposition Zrotation Xrotation Yrotation 
						End Site
						{
							OFFSET 0.0 0.0 0.0
						}
					}
				}
				JOINT Shoulder_L
				{
					OFFSET 12.9942 -0.242716 4.98039
					CHANNELS 6 Xposition Yposition Zposition Zrotation Xrotation Yrotation 
					JOINT UpperArm_L
					{
						OFFSET 5.34809 0.0 0.0
						CHANNELS 6 Xposition Yposition Zposition Zrotation Xrotation Yrotation 
						JOINT LowerArm_L
						{
							OFFSET 24.3286 1.87007e-05 0.0
							CHANNELS 6 Xposition Yposition Zposition Zrotation Xrotation Yrotation 
							JOINT Hand_L
							{
								OFFSET 22.2916 0.0 0.0
								CHANNELS 6 Xposition Yposition Zposition Zrotation Xrotation Yrotation 
								End Site
								{
									OFFSET 0.0 0.0 0.0
								}
							}
						}
					}
				}
				JOINT Shoulder_R
				{
					OFFSET 12.9945 -0.242716 -4.98039
					CHANNELS 6 Xposition Yposition Zposition Zrotation Xrotation Yrotation 
					JOINT UpperArm_R
					{
						OFFSET -5.34813 0.0 0.0
						CHANNELS 6 Xposition Yposition Zposition Zrotation Xrotation Yrotation 
						JOINT LowerArm_R
						{
							OFFSET -24.3289 0.000322201 0.0
							CHANNELS 6 Xposition Yposition Zposition Zrotation Xrotation Yrotation 
							JOINT Hand_R
							{
								OFFSET -22.2915 -0.000108084 0.0
								CHANNELS 6 Xposition Yposition Zposition Zrotation Xrotation Yrotation 
								End Site
								{
									OFFSET 0.0 0.0 0.0
								}
							}
						}
					}
				}
			}
		}
		JOINT UpperLeg_L
		{
			OFFSET -2.19248 -6.46944 0.0
			CHANNELS 6 Xposition Yposition Zposition Zrotation Xrotation Yrotation 
			JOINT LowerLeg_L
			{
				OFFSET 39.0811 0.0 -1.23785e-05
				CHANNELS 6 Xposition Yposition Zposition Zrotation Xrotation Yrotation 
				JOINT Foot_L
				{
					OFFSET 40.9854 0.0 -1.26872e-05
					CHANNELS 6 Xposition Yposition Zposition Zrotation Xrotation Yrotation 
					JOINT Toes_L
					{
						OFFSET 11.7543 0.0 0.0
						CHANNELS 6 Xposition Yposition Zposition Zrotation Xrotation Yrotation 
						End Site
						{
							OFFSET 0.0 0.0 0.0
						}
					}
				}
			}
		}
		JOINT UpperLeg_R
		{
			OFFSET -2.19251 6.46944 0.0
			CHANNELS 6 Xposition Yposition Zposition Zrotation Xrotation Yrotation 
			JOINT LowerLeg_R
			{
				OFFSET -39.0811 -0.00228153 -0.0401928
				CHANNELS 6 Xposition Yposition Zposition Zrotation Xrotation Yrotation 
				JOINT Foot_R
				{
					OFFSET -40.9854 0.0 0.0
					CHANNELS 6 Xposition Yposition Zposition Zrotation Xrotation Yrotation 
					JOINT Toes_R
					{
						OFFSET -11.7543 0.0 0.0
						CHANNELS 6 Xposition Yposition Zposition Zrotation Xrotation Yrotation 
						End Site
						{
							OFFSET 0.0 0.0 0.0
						}
					}
				}
			}
		}
	}
}
MOTION
Frames:	6
Frame Time:	0.0333333
0.000000 0.000000 0.000000 0.000000 0.000000 -0.000000 2.803070 82.390300 482.289000 -84.111400 4.732390 161.014000 15.735700 0.000005 -0.000001 104.187000 81.329400 -100.639000 8.984550 -0.406207 -0.000000 8.941740 4.264510 6.758180 16.377300 -0.000001 -0.000001 -11.934500 2.298570 1.341290 6.456720 -0.000001 -0.000000 -10.879400 4.942160 -7.690240 12.994200 -0.242716 4.980390 -92.624800 7.282460 -70.117400 5.348090 -0.000007 -0.000001 -59.206600 -12.376900 17.585900 24.328600 0.000019 0.000005 1.428510 46.105800 -1.982460 22.291600 -0.000001 0.000005 -14.646200 5.079980 5.554220 12.994500 -0.242716 -4.980390 90.373800 -1.498100 -75.988500 -5.348130 -0.000001 -0.000004 -64.746500 13.764900 -25.465300 -24.328900 0.000322 -0.000009 5.074670 4.780870 -46.818100 -22.291500 -0.000108 -0.000004 9.360480 5.292730 0.300866 -2.192480 -6.469440 -0.000000 -174.584000 -5.461400 -38.520600 39.081100 -0.000007 -0.000012 0.442916 -0.010004 88.704900 40.985400 -0.000006 -0.000013 -7.615800 7.478620 -42.128700 11.754300 -0.000000 0.000003 0.000813 0.015047 -15.966600 -2.192510 6.469440 -0.000001 -174.507000 1.016850 149.315000 -39.081100 -0.002282 -0.040193 0.028788 -0.017251 55.990300 -40.985400 0.000008 0.000006 -7.254560 7.775240 -91.201100 -11.754300 -0.000006 -0.000006 0.002406 0.099100 -12.554400
0.000000 0.000000 0.000000 0.000000 0.000000 -0.000000 2.268980 83.943600 476.196000 -86.623700 4.827080 160.885000 15.735700 0.000005 -0.000001 107.003000 81.185000 -104.601000 8.984550 -0.406207 -0.000000 9.016370 5.154170 4.394910 16.377300 -0.000001 -0.000001 -11.386600 1.479600 1.165300 6.456720 -0.000001 -0.000000 -10.519200 3.024240 -7.002570 12.994200 -0.242716 4.980390 -92.380100 6.390520 -69.523200 5.348090 -0.000007 -0.000001 -51.731000 -14.662600 22.829500 24.328600 0.000019 0.000005 1.903140 39.505200 -2.991200 22.291600 -0.000001 0.000005 -6.616540 4.993280 7.392840 12.994500 -0.242716 -4.980390 90.509100 -2.004960 -75.749300 -5.348130 -0.000001 -0.000004 -62.777500 11.811800 -27.995100 -24.328900 0.000322 -0.000009 5.800010 3.126880 -61.797000 -22.291500 -0.000108 -0.000004 15.478400 5.357820 -1.575800 -2.192480 -6.469440 -0.000000 -177.511000 -3.973600 -47.440200 39.081100 -0.000007 -0.000012 0.347121 0.005698 90.938900 40.985400 -0.000006 -0.000013 -5.158240 4.438380 -49.375200 11.754300 -0.000000 0.000003 0.001747 0.038071 -15.032400 -2.192510 6.469440 -0.000001 -177.978000 4.267870 156.537000 -39.081100 -0.002282 -0.040193 0.040983 -0.033196 48.658100 -40.985400 0.000008 0.000006 -7.379310 10.152300 -87.676000 -11.754300 -0.000006 -0.000006 0.001464 0.030021 -15.355300
0.000000 0.000000 0.000000 0.000000 0.000000 -0.000000 1.642240 86.146500 469.575000 -89.694800 4.515150 159.907000 15.735700 0.000005 -0.000001 109.244000 81.618500 -108.130000 8.984550 -0.406207 -0.000000 8.035380 5.503490 1.839110 16.377300 -0.000001 -0.000001 -10.587200 0.911496 1.446830 6.456720 -0.000001 -0.000000 -9.367680 1.238150 -6.461010 12.994200 -0.242716 4.980390 -91.771500 4.931820 -70.215000 5.348090 -0.000007 -0.000001 -44.940400 -18.725300 27.304400 24.328600 0.000019 0.000005 1.411600 28.254300 -2.978800 22.291600 -0.000001 0.000005 5.620660 4.776910 11.602100 12.994500 -0.242716 -4.980390 90.656300 -2.600810 -75.829800 -5.348130 -0.000001 -0.000004 -63.093100 8.517040 -28.339600 -24.328900 0.000322 -0.000009 0.943255 0.300927 -72.798600 -22.291500 -0.000108 -0.000004 19.006400 5.467040 -5.229380 -2.192480 -6.469440 -0.000000 179.394000 -1.990920 -53.969000 39.081100 -0.000007 -0.000012 0.258695 -0.015373 86.597400 40.985400 -0.000006 -0.000013 -4.519500 3.018090 -56.651100 11.754300 -0.000000 0.000003 0.001576 0.033078 -15.235000 -2.192510 6.469440 -0.000001 178.121000 6.404430 164.201000 -39.081100 -0.002282 -0.040193 0.050210 -0.059736 38.152000 -40.985400 0.000008 0.000006 -8.394630 10.279400 -80.339800 -11.754300 -0.000006 -0.000006 -0.005752 -0.068565 -19.363400
0.000000 0.000000 0.000000 0.000000 0.000000 -0.000000 0.985451 88.698900 462.657000 -92.826800 4.041920 157.834000 15.735700 0.000005 -0.000001 111.094000 82.697900 -111.223000 8.984550 -0.406207 -0.000000 5.884680 5.244470 -0.529350 16.377300 -0.000001 -0.000001 -9.724720 0.326769 0.890327 6.456720 -0.000001 -0.000000 -7.590820 0.176323 -4.780720 12.994200 -0.242716 4.980390 -91.222300 3.605040 -71.259100 5.348090 -0.000007 -0.000001 -39.635900 -23.080600 30.470400 24.328600 0.000019 0.000005 0.599644 18.288100 -1.908740 22.291600 -0.000001 0.000005 24.288900 4.511050 16.174700 12.994500 -0.242716 -4.980390 90.924100 -3.823350 -76.400400 -5.348130 -0.000001 -0.000004 -66.020200 5.783610 -26.606100 -24.328900 0.000322 -0.000009 -6.923490 -1.245310 -79.824900 -22.291500 -0.000108 -0.000004 20.182400 5.602550 -11.443300 -2.192480 -6.469440 -0.000000 176.583000 -0.146706 -58.172000 39.081100 -0.000007 -0.000012 0.187371 -0.045380 76.383400 40.985400 -0.000006 -0.000013 -5.377600 3.082050 -62.001800 11.754300 -0.000000 0.000003 0.001550 0.032362 -15.264000 -2.192510 6.469440 -0.000001 174.890000 7.701270 170.351000 -39.081100 -0.002282 -0.040193 0.050709 -0.093479 26.888500 -40.985400 0.000008 0.000006 -7.786750 7.174450 -67.883100 -11.754300 -0.000006 -0.000006 -0.038796 -0.255275 -27.055900
0.000000 0.000000 0.000000 0.000000 0.000000 -0.000000 0.474879 91.009100 455.729000 -95.016900 3.586960 154.979000 15.735700 0.000005 -0.000001 116.094000 83.996800 -117.236000 8.984550 -0.406207 -0.000000 3.082360 5.322300 -2.425640 16.377300 -0.000001 -0.000001 -9.104620 -0.079915 0.939345 6.456720 -0.000001 -0.000000 -6.184730 -1.027390 -3.638050 12.994200 -0.242716 4.980390 -90.756400 2.334700 -72.044400 5.348090 -0.000007 -0.000001 -38.732400 -24.778500 30.200600 24.328600 0.000019 0.000005 0.453072 18.912000 -1.397620 22.291600 -0.000001 0.000005 45.231200 3.962980 24.504300 12.994500 -0.242716 -4.980390 91.043600 -4.490940 -76.903300 -5.348130 -0.000001 -0.000004 -68.744800 4.192090 -23.231600 -24.328900 0.000322 -0.000009 -9.267840 -1.035260 -83.682000 -22.291500 -0.000108 -0.000004 23.632200 5.660240 -15.938400 -2.192480 -6.469440 -0.000000 174.918000 0.922045 -59.924400 39.081100 -0.000007 -0.000012 0.112456 -0.061045 61.503600 40.985400 -0.000006 -0.000013 -6.089280 5.699040 -65.951600 11.754300 -0.000000 0.000003 0.001956 0.045066 -14.748700 -2.192510 6.469440 -0.000001 173.449000 10.546200 173.799000 -39.081100 -0.002282 -0.040193 0.039609 -0.114232 17.621300 -40.985400 0.000008 0.000006 -3.380190 4.403840 -51.452700 -11.754300 -0.000006 -0.000006 -0.100029 -0.444627 -35.130400
0.000000 0.000000 0.000000 0.000000 0.000000 -0.000000 0.427899 92.466800 448.366000 -94.569100 2.451380 154.317000 15.735700 0.000005 -0.000001 119.439000 84.322900 -120.589000 8.984550 -0.406207 -0.000000 2.189780 5.632610 -2.406720 16.377300 -0.000001 -0.000001 -9.244200 -0.519177 1.028810 6.456720 -0.000001 -0.000000 -5.894500 -1.849780 -3.079280 12.994200 -0.242716 4.980390 -90.659100 2.054950 -72.214000 5.348090 -0.000007 -0.000001 -41.495900 -24.344900 26.321800 24.328600 0.000019 0.000005 0.292980 20.348800 -0.842135 22.291600 -0.000001 0.000005 56.376400 3.565550 30.104300 12.994500 -0.242716 -4.980390 90.963200 -4.302510 -77.368500 -5.348130 -0.000001 -0.000004 -69.905300 3.889360 -19.822600 -24.328900 0.000322 -0.000009 -6.239620 -0.646418 -84.100100 -22.291500 -0.000108 -0.000004 29.071800 5.669310 -17.238300 -2.192480 -6.469440 -0.000000 176.523000 1.251960 -56.802700 39.081100 -0.000007 -0.000012 0.062187 -0.063566 44.370300 40.985400 -0.000006 -0.000013 -7.066960 9.927210 -69.347000 11.754300 -0.000000 0.000003 0.002196 0.055105 -14.341600 -2.192510 6.469440 -0.000001 174.629000 13.084300 177.978000 -39.081100 -0.002282 -0.040193 0.029450 -0.132781 11.126000 -40.985400 0.000008 0.000006 1.232170 3.747400 -34.797000 -11.754300 -0.000006 -0.000006 -0.067494 -0.355393 -31.279100
